# xmcd
# Copyright (C) 1995-1998 Ti Kan
#
# Track frame offsets:
#       150
#       17784
#       31256
#       45655
#       60732
#       74216
#       87208
#       104163
#       120274
#       137373
#       152393
#       164078
#       178955
#
# Disc length: 2600 seconds
#
# Revision: 0
# Processed by: cddbd v1.4PL0 Copyright (c) Steve Scherf et al.
# Submitted via: CD-Transfer v1.0
#
DISCID=b20a260d
DTITLE=Rolf Raggenbass - Ethno-Country Rock'n'roll
DYEAR=2003
DGENRE=
TTITLE0=Ethno-Coutry Rock'n'roll
TTITLE1=Elei Dihei
TTITLE2=Er Trinkt Tequila
TTITLE3=S' Wird Jetzt Ziit
TTITLE4=E Chlini Melodie
TTITLE5=Country Music Made In Switzerland
TTITLE6=Wo Bliibt D' Liebei
TTITLE7=Mir Wänd Die Glych Frau
TTITLE8=Sie Find' Min Traktor Sexy
TTITLE9=Schmetterling Im Buuch (Instrumental)
TTITLE10=Schtrahle-Girl (Good Luck Charm)
TTITLE11=Nie Meh
TTITLE12=Wer Günnt Und Wer Verlüürt
EXTD=
EXTT0=
EXTT1=
EXTT2=
EXTT3=
EXTT4=
EXTT5=
EXTT6=
EXTT7=
EXTT8=
EXTT9=
EXTT10=
EXTT11=
EXTT12=
PLAYORDER=
